<svg width="50" height="38" viewBox="0 0 50 38" fill="none" xmlns="http://www.w3.org/2000/svg">
<rect width="26" height="8" fill="#760404"/>
<rect x="9" y="30" width="26" height="8" transform="rotate(-90 9 30)" fill="#760404"/>
<rect x="27" y="30" width="30" height="13" transform="rotate(-90 27 30)" fill="#760404"/>
<ellipse cx="40" cy="15" rx="6" ry="15" fill="#760404"/>
<ellipse cx="37" cy="15.5" rx="4" ry="9.5" fill="white"/>
<rect x="31" y="25" width="19" height="6" transform="rotate(-90 31 25)" fill="white"/>
<circle cx="17.5" cy="25.5" r="4" fill="white" stroke="#760404"/>
<circle cx="45.5" cy="25.5" r="4" fill="white" stroke="#760404"/>
<path d="M10.3461 32.2727C10.3461 32.4295 10.3168 32.5637 10.258 32.6754C10.1998 32.7867 10.1203 32.8719 10.0194 32.9311C9.91903 32.9903 9.80515 33.0199 9.67779 33.0199C9.55042 33.0199 9.43631 32.9903 9.33546 32.9311C9.23508 32.8714 9.15553 32.786 9.09682 32.6747C9.03858 32.563 9.00946 32.429 9.00946 32.2727C9.00946 32.116 9.03858 31.982 9.09682 31.8707C9.15553 31.759 9.23508 31.6735 9.33546 31.6143C9.43631 31.5552 9.55042 31.5256 9.67779 31.5256C9.80515 31.5256 9.91903 31.5552 10.0194 31.6143C10.1203 31.6735 10.1998 31.759 10.258 31.8707C10.3168 31.982 10.3461 32.116 10.3461 32.2727ZM10.0812 32.2727C10.0812 32.1624 10.0639 32.0694 10.0293 31.9936C9.99526 31.9174 9.94791 31.8598 9.8873 31.821C9.8267 31.7817 9.75686 31.7621 9.67779 31.7621C9.59872 31.7621 9.52888 31.7817 9.46827 31.821C9.40766 31.8598 9.36008 31.9174 9.32551 31.9936C9.29142 32.0694 9.27438 32.1624 9.27438 32.2727C9.27438 32.383 9.29142 32.4763 9.32551 32.5526C9.36008 32.6283 9.40766 32.6858 9.46827 32.7251C9.52888 32.764 9.59872 32.7834 9.67779 32.7834C9.75686 32.7834 9.8267 32.764 9.8873 32.7251C9.94791 32.6858 9.99526 32.6283 10.0293 32.5526C10.0639 32.4763 10.0812 32.383 10.0812 32.2727ZM10.9839 33V31.9091H11.2331V32.0909H11.2445C11.2644 32.0279 11.2985 31.9794 11.3468 31.9453C11.3956 31.9107 11.4512 31.8935 11.5137 31.8935C11.5279 31.8935 11.5438 31.8942 11.5613 31.8956C11.5793 31.8965 11.5942 31.8982 11.606 31.9006V32.1371C11.5951 32.1333 11.5778 32.13 11.5542 32.1271C11.531 32.1238 11.5085 32.1222 11.4867 32.1222C11.4398 32.1222 11.3977 32.1323 11.3603 32.1527C11.3233 32.1726 11.2942 32.2003 11.2729 32.2358C11.2516 32.2713 11.241 32.3123 11.241 32.3587V33H10.9839ZM12.6063 33.4318C12.514 33.4318 12.4347 33.4193 12.3684 33.3942C12.3021 33.3696 12.2489 33.3364 12.2086 33.2947C12.1684 33.2531 12.1404 33.2069 12.1248 33.1562L12.3563 33.1001C12.3668 33.1214 12.3819 33.1425 12.4018 33.1634C12.4217 33.1847 12.4484 33.2022 12.482 33.2159C12.5161 33.2301 12.559 33.2372 12.6106 33.2372C12.6835 33.2372 12.7439 33.2195 12.7917 33.1839C12.8395 33.1489 12.8634 33.0911 12.8634 33.0107V32.804H12.8507C12.8374 32.8305 12.818 32.8577 12.7924 32.8857C12.7673 32.9136 12.7339 32.937 12.6923 32.956C12.6511 32.9749 12.5992 32.9844 12.5367 32.9844C12.4529 32.9844 12.3769 32.9647 12.3088 32.9254C12.241 32.8857 12.1871 32.8265 12.1468 32.7479C12.107 32.6688 12.0872 32.5698 12.0872 32.451C12.0872 32.3312 12.107 32.2301 12.1468 32.1477C12.1871 32.0649 12.2413 32.0021 12.3095 31.9595C12.3776 31.9164 12.4536 31.8949 12.5374 31.8949C12.6014 31.8949 12.6539 31.9058 12.6951 31.9276C12.7368 31.9489 12.7699 31.9747 12.7945 32.005C12.8192 32.0348 12.8379 32.063 12.8507 32.0895H12.8649V31.9091H13.1184V33.0178C13.1184 33.111 13.0962 33.1882 13.0517 33.2493C13.0071 33.3104 12.9463 33.3561 12.8691 33.3864C12.7919 33.4167 12.7043 33.4318 12.6063 33.4318ZM12.6085 32.7827C12.6629 32.7827 12.7093 32.7694 12.7477 32.7429C12.786 32.7164 12.8151 32.6783 12.835 32.6286C12.8549 32.5788 12.8649 32.5192 12.8649 32.4496C12.8649 32.3809 12.8549 32.3208 12.835 32.2692C12.8156 32.2176 12.7867 32.1776 12.7484 32.1491C12.7105 32.1203 12.6639 32.1058 12.6085 32.1058C12.5512 32.1058 12.5034 32.1207 12.465 32.1506C12.4267 32.1804 12.3978 32.2214 12.3784 32.2734C12.3589 32.325 12.3492 32.3838 12.3492 32.4496C12.3492 32.5163 12.3589 32.5748 12.3784 32.625C12.3982 32.6747 12.4274 32.7135 12.4657 32.7415C12.5045 32.7689 12.5521 32.7827 12.6085 32.7827ZM14.0958 33.022C14.0267 33.022 13.9644 33.0097 13.909 32.9851C13.8541 32.96 13.8106 32.9231 13.7784 32.8743C13.7466 32.8255 13.7308 32.7654 13.7308 32.6939C13.7308 32.6323 13.7421 32.5814 13.7649 32.5412C13.7876 32.5009 13.8186 32.4688 13.8579 32.4446C13.8972 32.4205 13.9415 32.4022 13.9907 32.3899C14.0404 32.3771 14.0918 32.3679 14.1448 32.3622C14.2088 32.3556 14.2606 32.3497 14.3004 32.3445C14.3401 32.3388 14.369 32.3303 14.387 32.3189C14.4055 32.3071 14.4147 32.2888 14.4147 32.2642V32.2599C14.4147 32.2064 14.3989 32.165 14.3671 32.1357C14.3354 32.1063 14.2897 32.0916 14.2301 32.0916C14.1671 32.0916 14.1171 32.1054 14.0802 32.1328C14.0437 32.1603 14.0191 32.1927 14.0063 32.2301L13.7663 32.196C13.7852 32.1297 13.8165 32.0743 13.86 32.0298C13.9036 31.9848 13.9569 31.9512 14.0198 31.929C14.0828 31.9062 14.1524 31.8949 14.2286 31.8949C14.2812 31.8949 14.3335 31.901 14.3856 31.9134C14.4377 31.9257 14.4853 31.946 14.5284 31.9744C14.5714 32.0024 14.606 32.0405 14.632 32.0888C14.6586 32.1371 14.6718 32.1974 14.6718 32.2699V33H14.4247V32.8501H14.4161C14.4005 32.8804 14.3785 32.9089 14.3501 32.9354C14.3222 32.9614 14.2869 32.9825 14.2443 32.9986C14.2021 33.0142 14.1526 33.022 14.0958 33.022ZM14.1626 32.8331C14.2142 32.8331 14.2589 32.8229 14.2968 32.8026C14.3347 32.7817 14.3638 32.7543 14.3842 32.7202C14.405 32.6861 14.4154 32.6489 14.4154 32.6087V32.4801C14.4074 32.4867 14.3936 32.4929 14.3742 32.4986C14.3553 32.5043 14.334 32.5092 14.3103 32.5135C14.2866 32.5178 14.2632 32.5215 14.24 32.5249C14.2168 32.5282 14.1967 32.531 14.1796 32.5334C14.1413 32.5386 14.107 32.5471 14.0767 32.5589C14.0463 32.5708 14.0224 32.5874 14.0049 32.6087C13.9874 32.6295 13.9786 32.6565 13.9786 32.6896C13.9786 32.737 13.9959 32.7727 14.0305 32.7969C14.0651 32.821 14.1091 32.8331 14.1626 32.8331ZM15.5874 32.3608V33H15.3303V31.9091H15.5761V32.0945H15.5889C15.614 32.0334 15.654 31.9848 15.7089 31.9489C15.7643 31.9129 15.8327 31.8949 15.9142 31.8949C15.9894 31.8949 16.055 31.911 16.1109 31.9432C16.1672 31.9754 16.2108 32.022 16.2416 32.0831C16.2728 32.1442 16.2882 32.2183 16.2877 32.3054V33H16.0306V32.3452C16.0306 32.2723 16.0117 32.2152 15.9738 32.174C15.9364 32.1328 15.8846 32.1122 15.8183 32.1122C15.7733 32.1122 15.7333 32.1222 15.6982 32.142C15.6637 32.1615 15.6365 32.1896 15.6166 32.2266C15.5972 32.2635 15.5874 32.3082 15.5874 32.3608ZM16.9491 33V31.9091H17.2062V33H16.9491ZM17.0784 31.7543C17.0376 31.7543 17.0026 31.7408 16.9732 31.7138C16.9439 31.6863 16.9292 31.6534 16.9292 31.6151C16.9292 31.5762 16.9439 31.5433 16.9732 31.5163C17.0026 31.4889 17.0376 31.4751 17.0784 31.4751C17.1195 31.4751 17.1546 31.4889 17.1835 31.5163C17.2128 31.5433 17.2275 31.5762 17.2275 31.6151C17.2275 31.6534 17.2128 31.6863 17.1835 31.7138C17.1546 31.7408 17.1195 31.7543 17.0784 31.7543ZM17.8564 33V32.8366L18.4189 32.1314V32.1222H17.8748V31.9091H18.7335V32.0845L18.198 32.7777V32.7869H18.752V33H17.8564ZM19.8453 33.0213C19.736 33.0213 19.6415 32.9986 19.5619 32.9531C19.4829 32.9072 19.422 32.8423 19.3794 32.7585C19.3368 32.6742 19.3155 32.575 19.3155 32.4609C19.3155 32.3487 19.3368 32.2502 19.3794 32.1655C19.4225 32.0803 19.4826 32.014 19.5598 31.9666C19.637 31.9188 19.7277 31.8949 19.8318 31.8949C19.8991 31.8949 19.9625 31.9058 20.0222 31.9276C20.0823 31.9489 20.1353 31.982 20.1813 32.027C20.2277 32.072 20.2641 32.1293 20.2906 32.1989C20.3172 32.268 20.3304 32.3504 20.3304 32.446V32.5249H19.4362V32.3516H20.084C20.0835 32.3023 20.0728 32.2585 20.052 32.2202C20.0312 32.1813 20.0021 32.1508 19.9646 32.1286C19.9277 32.1063 19.8846 32.0952 19.8354 32.0952C19.7828 32.0952 19.7367 32.108 19.6969 32.1335C19.6571 32.1586 19.6261 32.1918 19.6039 32.233C19.5821 32.2737 19.5709 32.3184 19.5705 32.3672V32.5185C19.5705 32.5819 19.5821 32.6364 19.6053 32.6818C19.6285 32.7268 19.6609 32.7614 19.7026 32.7855C19.7442 32.8092 19.793 32.821 19.8489 32.821C19.8863 32.821 19.9201 32.8158 19.9504 32.8054C19.9807 32.7945 20.007 32.7786 20.0293 32.7578C20.0515 32.737 20.0683 32.7112 20.0797 32.6804L20.3198 32.7074C20.3046 32.7708 20.2757 32.8262 20.2331 32.8736C20.191 32.9205 20.137 32.9569 20.0712 32.983C20.0054 33.0085 19.9301 33.0213 19.8453 33.0213ZM21.8554 33V31.5455H22.1125V32.0895H22.1231C22.1364 32.063 22.1551 32.0348 22.1792 32.005C22.2034 31.9747 22.2361 31.9489 22.2773 31.9276C22.3184 31.9058 22.371 31.8949 22.4349 31.8949C22.5192 31.8949 22.5952 31.9164 22.6629 31.9595C22.7311 32.0021 22.7851 32.0653 22.8248 32.1491C22.8651 32.2325 22.8852 32.3348 22.8852 32.456C22.8852 32.5758 22.8656 32.6776 22.8263 32.7614C22.787 32.8452 22.7335 32.9091 22.6657 32.9531C22.598 32.9972 22.5213 33.0192 22.4356 33.0192C22.3731 33.0192 22.3213 33.0088 22.2801 32.9879C22.2389 32.9671 22.2058 32.942 22.1807 32.9126C22.156 32.8828 22.1369 32.8546 22.1231 32.8281H22.1082V33H21.8554ZM22.1075 32.4545C22.1075 32.5251 22.1175 32.5869 22.1373 32.6399C22.1577 32.6929 22.1868 32.7344 22.2247 32.7642C22.2631 32.7936 22.3095 32.8082 22.3639 32.8082C22.4207 32.8082 22.4683 32.7931 22.5067 32.7628C22.545 32.732 22.5739 32.6901 22.5933 32.6371C22.6132 32.5836 22.6231 32.5227 22.6231 32.4545C22.6231 32.3868 22.6134 32.3267 22.594 32.2741C22.5746 32.2216 22.5457 32.1804 22.5074 32.1506C22.469 32.1207 22.4212 32.1058 22.3639 32.1058C22.309 32.1058 22.2623 32.1203 22.224 32.1491C22.1856 32.178 22.1565 32.2185 22.1366 32.2706C22.1172 32.3227 22.1075 32.384 22.1075 32.4545ZM23.9867 33.0213C23.8774 33.0213 23.7829 32.9986 23.7034 32.9531C23.6243 32.9072 23.5634 32.8423 23.5208 32.7585C23.4782 32.6742 23.4569 32.575 23.4569 32.4609C23.4569 32.3487 23.4782 32.2502 23.5208 32.1655C23.5639 32.0803 23.624 32.014 23.7012 31.9666C23.7784 31.9188 23.8691 31.8949 23.9732 31.8949C24.0405 31.8949 24.1039 31.9058 24.1636 31.9276C24.2237 31.9489 24.2767 31.982 24.3227 32.027C24.3691 32.072 24.4055 32.1293 24.432 32.1989C24.4586 32.268 24.4718 32.3504 24.4718 32.446V32.5249H23.5776V32.3516H24.2254C24.2249 32.3023 24.2142 32.2585 24.1934 32.2202C24.1726 32.1813 24.1435 32.1508 24.1061 32.1286C24.0691 32.1063 24.026 32.0952 23.9768 32.0952C23.9242 32.0952 23.8781 32.108 23.8383 32.1335C23.7985 32.1586 23.7675 32.1918 23.7453 32.233C23.7235 32.2737 23.7124 32.3184 23.7119 32.3672V32.5185C23.7119 32.5819 23.7235 32.6364 23.7467 32.6818C23.7699 32.7268 23.8023 32.7614 23.844 32.7855C23.8856 32.8092 23.9344 32.821 23.9903 32.821C24.0277 32.821 24.0615 32.8158 24.0918 32.8054C24.1222 32.7945 24.1484 32.7786 24.1707 32.7578C24.1929 32.737 24.2097 32.7112 24.2211 32.6804L24.4612 32.7074C24.446 32.7708 24.4171 32.8262 24.3745 32.8736C24.3324 32.9205 24.2784 32.9569 24.2126 32.983C24.1468 33.0085 24.0715 33.0213 23.9867 33.0213ZM25.6341 31.9091V32.108H25.0069V31.9091H25.6341ZM25.1618 31.6477H25.4189V32.6719C25.4189 32.7064 25.4241 32.733 25.4345 32.7514C25.4454 32.7694 25.4596 32.7817 25.4771 32.7884C25.4946 32.795 25.514 32.7983 25.5354 32.7983C25.5514 32.7983 25.5661 32.7971 25.5794 32.7947C25.5931 32.7924 25.6035 32.7902 25.6106 32.7884L25.654 32.9893C25.6402 32.9941 25.6206 32.9993 25.595 33.005C25.5699 33.0107 25.5391 33.014 25.5027 33.0149C25.4383 33.0168 25.3803 33.0071 25.3287 32.9858C25.2771 32.964 25.2361 32.9304 25.2058 32.8849C25.176 32.8395 25.1613 32.7827 25.1618 32.7145V31.6477ZM26.7938 31.9091V32.108H26.1667V31.9091H26.7938ZM26.3215 31.6477H26.5786V32.6719C26.5786 32.7064 26.5838 32.733 26.5943 32.7514C26.6052 32.7694 26.6194 32.7817 26.6369 32.7884C26.6544 32.795 26.6738 32.7983 26.6951 32.7983C26.7112 32.7983 26.7259 32.7971 26.7392 32.7947C26.7529 32.7924 26.7633 32.7902 26.7704 32.7884L26.8137 32.9893C26.8 32.9941 26.7803 32.9993 26.7548 33.005C26.7297 33.0107 26.6989 33.014 26.6624 33.0149C26.5981 33.0168 26.54 33.0071 26.4884 32.9858C26.4368 32.964 26.3959 32.9304 26.3656 32.8849C26.3357 32.8395 26.3211 32.7827 26.3215 32.7145V31.6477ZM27.8801 33.0213C27.7707 33.0213 27.6763 32.9986 27.5967 32.9531C27.5176 32.9072 27.4568 32.8423 27.4142 32.7585C27.3716 32.6742 27.3503 32.575 27.3503 32.4609C27.3503 32.3487 27.3716 32.2502 27.4142 32.1655C27.4573 32.0803 27.5174 32.014 27.5946 31.9666C27.6718 31.9188 27.7624 31.8949 27.8666 31.8949C27.9338 31.8949 27.9973 31.9058 28.0569 31.9276C28.1171 31.9489 28.1701 31.982 28.216 32.027C28.2624 32.072 28.2989 32.1293 28.3254 32.1989C28.3519 32.268 28.3652 32.3504 28.3652 32.446V32.5249H27.471V32.3516H28.1187C28.1183 32.3023 28.1076 32.2585 28.0868 32.2202C28.0659 32.1813 28.0368 32.1508 27.9994 32.1286C27.9625 32.1063 27.9194 32.0952 27.8702 32.0952C27.8176 32.0952 27.7714 32.108 27.7317 32.1335C27.6919 32.1586 27.6609 32.1918 27.6386 32.233C27.6168 32.2737 27.6057 32.3184 27.6052 32.3672V32.5185C27.6052 32.5819 27.6168 32.6364 27.64 32.6818C27.6632 32.7268 27.6957 32.7614 27.7373 32.7855C27.779 32.8092 27.8278 32.821 27.8836 32.821C27.9211 32.821 27.9549 32.8158 27.9852 32.8054C28.0155 32.7945 28.0418 32.7786 28.064 32.7578C28.0863 32.737 28.1031 32.7112 28.1145 32.6804L28.3545 32.7074C28.3394 32.7708 28.3105 32.8262 28.2679 32.8736C28.2257 32.9205 28.1718 32.9569 28.1059 32.983C28.0401 33.0085 27.9649 33.0213 27.8801 33.0213ZM28.9827 33V31.9091H29.232V32.0909H29.2433C29.2632 32.0279 29.2973 31.9794 29.3456 31.9453C29.3944 31.9107 29.45 31.8935 29.5125 31.8935C29.5267 31.8935 29.5426 31.8942 29.5601 31.8956C29.5781 31.8965 29.593 31.8982 29.6048 31.9006V32.1371C29.594 32.1333 29.5767 32.13 29.553 32.1271C29.5298 32.1238 29.5073 32.1222 29.4855 32.1222C29.4387 32.1222 29.3965 32.1323 29.3591 32.1527C29.3222 32.1726 29.2931 32.2003 29.2718 32.2358C29.2504 32.2713 29.2398 32.3123 29.2398 32.3587V33H28.9827ZM30.209 33.0156C30.166 33.0156 30.129 33.0005 30.0982 32.9702C30.0675 32.9399 30.0523 32.9029 30.0528 32.8594C30.0523 32.8168 30.0675 32.7803 30.0982 32.75C30.129 32.7197 30.166 32.7045 30.209 32.7045C30.2507 32.7045 30.2869 32.7197 30.3177 32.75C30.349 32.7803 30.3648 32.8168 30.3653 32.8594C30.3648 32.8883 30.3572 32.9145 30.3426 32.9382C30.3284 32.9619 30.3094 32.9808 30.2857 32.995C30.2625 33.0088 30.237 33.0156 30.209 33.0156ZM31.8933 33V31.5455H32.4387C32.5505 31.5455 32.6442 31.5649 32.72 31.6037C32.7962 31.6425 32.8537 31.697 32.8926 31.767C32.9319 31.8366 32.9515 31.9179 32.9515 32.0107C32.9515 32.1039 32.9316 32.1849 32.8918 32.2536C32.8525 32.3217 32.7945 32.3745 32.7178 32.4119C32.6411 32.4489 32.5469 32.4673 32.4352 32.4673H32.0467V32.2486H32.3997C32.465 32.2486 32.5185 32.2396 32.5602 32.2216C32.6018 32.2031 32.6326 32.1764 32.6525 32.1413C32.6729 32.1058 32.683 32.0623 32.683 32.0107C32.683 31.959 32.6729 31.915 32.6525 31.8786C32.6321 31.8416 32.6011 31.8137 32.5595 31.7947C32.5178 31.7753 32.4641 31.7656 32.3982 31.7656H32.1568V33H31.8933ZM32.6447 32.3409L33.0048 33H32.7107L32.357 32.3409H32.6447ZM34.05 33.0213C33.9406 33.0213 33.8462 32.9986 33.7666 32.9531C33.6876 32.9072 33.6267 32.8423 33.5841 32.7585C33.5415 32.6742 33.5202 32.575 33.5202 32.4609C33.5202 32.3487 33.5415 32.2502 33.5841 32.1655C33.6272 32.0803 33.6873 32.014 33.7645 31.9666C33.8417 31.9188 33.9324 31.8949 34.0365 31.8949C34.1038 31.8949 34.1672 31.9058 34.2269 31.9276C34.287 31.9489 34.34 31.982 34.386 32.027C34.4324 32.072 34.4688 32.1293 34.4953 32.1989C34.5218 32.268 34.5351 32.3504 34.5351 32.446V32.5249H33.6409V32.3516H34.2887C34.2882 32.3023 34.2775 32.2585 34.2567 32.2202C34.2359 32.1813 34.2067 32.1508 34.1693 32.1286C34.1324 32.1063 34.0893 32.0952 34.0401 32.0952C33.9875 32.0952 33.9414 32.108 33.9016 32.1335C33.8618 32.1586 33.8308 32.1918 33.8085 32.233C33.7868 32.2737 33.7756 32.3184 33.7752 32.3672V32.5185C33.7752 32.5819 33.7868 32.6364 33.81 32.6818C33.8332 32.7268 33.8656 32.7614 33.9073 32.7855C33.9489 32.8092 33.9977 32.821 34.0536 32.821C34.091 32.821 34.1248 32.8158 34.1551 32.8054C34.1854 32.7945 34.2117 32.7786 34.234 32.7578C34.2562 32.737 34.273 32.7112 34.2844 32.6804L34.5244 32.7074C34.5093 32.7708 34.4804 32.8262 34.4378 32.8736C34.3957 32.9205 34.3417 32.9569 34.2759 32.983C34.2101 33.0085 34.1348 33.0213 34.05 33.0213ZM35.4097 31.5455V33H35.1526V31.5455H35.4097ZM36.388 33.022C36.3189 33.022 36.2566 33.0097 36.2012 32.9851C36.1463 32.96 36.1027 32.9231 36.0705 32.8743C36.0388 32.8255 36.023 32.7654 36.023 32.6939C36.023 32.6323 36.0343 32.5814 36.057 32.5412C36.0798 32.5009 36.1108 32.4688 36.1501 32.4446C36.1894 32.4205 36.2337 32.4022 36.2829 32.3899C36.3326 32.3771 36.384 32.3679 36.437 32.3622C36.5009 32.3556 36.5528 32.3497 36.5926 32.3445C36.6323 32.3388 36.6612 32.3303 36.6792 32.3189C36.6977 32.3071 36.7069 32.2888 36.7069 32.2642V32.2599C36.7069 32.2064 36.691 32.165 36.6593 32.1357C36.6276 32.1063 36.5819 32.0916 36.5222 32.0916C36.4593 32.0916 36.4093 32.1054 36.3724 32.1328C36.3359 32.1603 36.3113 32.1927 36.2985 32.2301L36.0585 32.196C36.0774 32.1297 36.1087 32.0743 36.1522 32.0298C36.1958 31.9848 36.249 31.9512 36.312 31.929C36.375 31.9062 36.4446 31.8949 36.5208 31.8949C36.5734 31.8949 36.6257 31.901 36.6778 31.9134C36.7299 31.9257 36.7775 31.946 36.8205 31.9744C36.8636 32.0024 36.8982 32.0405 36.9242 32.0888C36.9508 32.1371 36.964 32.1974 36.964 32.2699V33H36.7168V32.8501H36.7083C36.6927 32.8804 36.6707 32.9089 36.6423 32.9354C36.6143 32.9614 36.5791 32.9825 36.5365 32.9986C36.4943 33.0142 36.4448 33.022 36.388 33.022ZM36.4548 32.8331C36.5064 32.8331 36.5511 32.8229 36.589 32.8026C36.6269 32.7817 36.656 32.7543 36.6764 32.7202C36.6972 32.6861 36.7076 32.6489 36.7076 32.6087V32.4801C36.6996 32.4867 36.6858 32.4929 36.6664 32.4986C36.6475 32.5043 36.6262 32.5092 36.6025 32.5135C36.5788 32.5178 36.5554 32.5215 36.5322 32.5249C36.509 32.5282 36.4889 32.531 36.4718 32.5334C36.4335 32.5386 36.3991 32.5471 36.3688 32.5589C36.3385 32.5708 36.3146 32.5874 36.2971 32.6087C36.2796 32.6295 36.2708 32.6565 36.2708 32.6896C36.2708 32.737 36.2881 32.7727 36.3227 32.7969C36.3572 32.821 36.4013 32.8331 36.4548 32.8331ZM37.8328 31.9091L38.0529 32.3118L38.2767 31.9091H38.5487L38.2198 32.4545L38.5543 33H38.2838L38.0529 32.6072L37.8242 33H37.5515L37.8839 32.4545L37.56 31.9091H37.8328ZM40.3007 31.5455V33H40.0436V31.5455H40.3007ZM41.441 33.0213C41.3344 33.0213 41.2421 32.9979 41.164 32.951C41.0858 32.9041 41.0252 32.8385 40.9822 32.7543C40.9395 32.67 40.9182 32.5715 40.9182 32.4588C40.9182 32.3461 40.9395 32.2474 40.9822 32.1626C41.0252 32.0779 41.0858 32.0121 41.164 31.9652C41.2421 31.9183 41.3344 31.8949 41.441 31.8949C41.5475 31.8949 41.6398 31.9183 41.718 31.9652C41.7961 32.0121 41.8564 32.0779 41.8991 32.1626C41.9421 32.2474 41.9637 32.3461 41.9637 32.4588C41.9637 32.5715 41.9421 32.67 41.8991 32.7543C41.8564 32.8385 41.7961 32.9041 41.718 32.951C41.6398 32.9979 41.5475 33.0213 41.441 33.0213ZM41.4424 32.8153C41.5001 32.8153 41.5484 32.7995 41.5873 32.7678C41.6261 32.7356 41.655 32.6925 41.6739 32.6385C41.6933 32.5845 41.703 32.5244 41.703 32.4581C41.703 32.3913 41.6933 32.331 41.6739 32.277C41.655 32.2225 41.6261 32.1792 41.5873 32.147C41.5484 32.1148 41.5001 32.0987 41.4424 32.0987C41.3832 32.0987 41.334 32.1148 41.2947 32.147C41.2558 32.1792 41.2267 32.2225 41.2073 32.277C41.1884 32.331 41.1789 32.3913 41.1789 32.4581C41.1789 32.5244 41.1884 32.5845 41.2073 32.6385C41.2267 32.6925 41.2558 32.7356 41.2947 32.7678C41.334 32.7995 41.3832 32.8153 41.4424 32.8153ZM42.839 32.3608V33H42.5819V31.9091H42.8276V32.0945H42.8404C42.8655 32.0334 42.9055 31.9848 42.9605 31.9489C43.0159 31.9129 43.0843 31.8949 43.1657 31.8949C43.241 31.8949 43.3066 31.911 43.3624 31.9432C43.4188 31.9754 43.4624 32.022 43.4931 32.0831C43.5244 32.1442 43.5398 32.2183 43.5393 32.3054V33H43.2822V32.3452C43.2822 32.2723 43.2633 32.2152 43.2254 32.174C43.188 32.1328 43.1361 32.1122 43.0698 32.1122C43.0249 32.1122 42.9848 32.1222 42.9498 32.142C42.9152 32.1615 42.888 32.1896 42.8681 32.2266C42.8487 32.2635 42.839 32.3082 42.839 32.3608ZM44.6751 33.4318C44.5828 33.4318 44.5035 33.4193 44.4372 33.3942C44.3709 33.3696 44.3176 33.3364 44.2774 33.2947C44.2371 33.2531 44.2092 33.2069 44.1936 33.1562L44.4251 33.1001C44.4355 33.1214 44.4507 33.1425 44.4705 33.1634C44.4904 33.1847 44.5172 33.2022 44.5508 33.2159C44.5849 33.2301 44.6277 33.2372 44.6794 33.2372C44.7523 33.2372 44.8126 33.2195 44.8605 33.1839C44.9083 33.1489 44.9322 33.0911 44.9322 33.0107V32.804H44.9194C44.9062 32.8305 44.8867 32.8577 44.8612 32.8857C44.8361 32.9136 44.8027 32.937 44.761 32.956C44.7198 32.9749 44.668 32.9844 44.6055 32.9844C44.5217 32.9844 44.4457 32.9647 44.3775 32.9254C44.3098 32.8857 44.2558 32.8265 44.2156 32.7479C44.1758 32.6688 44.1559 32.5698 44.1559 32.451C44.1559 32.3312 44.1758 32.2301 44.2156 32.1477C44.2558 32.0649 44.31 32.0021 44.3782 31.9595C44.4464 31.9164 44.5224 31.8949 44.6062 31.8949C44.6701 31.8949 44.7227 31.9058 44.7639 31.9276C44.8055 31.9489 44.8387 31.9747 44.8633 32.005C44.8879 32.0348 44.9066 32.063 44.9194 32.0895H44.9336V31.9091H45.1872V33.0178C45.1872 33.111 45.1649 33.1882 45.1204 33.2493C45.0759 33.3104 45.0151 33.3561 44.9379 33.3864C44.8607 33.4167 44.7731 33.4318 44.6751 33.4318ZM44.6772 32.7827C44.7317 32.7827 44.7781 32.7694 44.8164 32.7429C44.8548 32.7164 44.8839 32.6783 44.9038 32.6286C44.9237 32.5788 44.9336 32.5192 44.9336 32.4496C44.9336 32.3809 44.9237 32.3208 44.9038 32.2692C44.8844 32.2176 44.8555 32.1776 44.8171 32.1491C44.7793 32.1203 44.7326 32.1058 44.6772 32.1058C44.6199 32.1058 44.5721 32.1207 44.5338 32.1506C44.4954 32.1804 44.4665 32.2214 44.4471 32.2734C44.4277 32.325 44.418 32.3838 44.418 32.4496C44.418 32.5163 44.4277 32.5748 44.4471 32.625C44.467 32.6747 44.4961 32.7135 44.5345 32.7415C44.5733 32.7689 44.6209 32.7827 44.6772 32.7827ZM46.3336 33.0213C46.2242 33.0213 46.1298 32.9986 46.0502 32.9531C45.9712 32.9072 45.9103 32.8423 45.8677 32.7585C45.8251 32.6742 45.8038 32.575 45.8038 32.4609C45.8038 32.3487 45.8251 32.2502 45.8677 32.1655C45.9108 32.0803 45.9709 32.014 46.0481 31.9666C46.1253 31.9188 46.2159 31.8949 46.3201 31.8949C46.3873 31.8949 46.4508 31.9058 46.5105 31.9276C46.5706 31.9489 46.6236 31.982 46.6695 32.027C46.7159 32.072 46.7524 32.1293 46.7789 32.1989C46.8054 32.268 46.8187 32.3504 46.8187 32.446V32.5249H45.9245V32.3516H46.5722C46.5718 32.3023 46.5611 32.2585 46.5403 32.2202C46.5195 32.1813 46.4903 32.1508 46.4529 32.1286C46.416 32.1063 46.3729 32.0952 46.3237 32.0952C46.2711 32.0952 46.2249 32.108 46.1852 32.1335C46.1454 32.1586 46.1144 32.1918 46.0921 32.233C46.0704 32.2737 46.0592 32.3184 46.0588 32.3672V32.5185C46.0588 32.5819 46.0704 32.6364 46.0936 32.6818C46.1168 32.7268 46.1492 32.7614 46.1909 32.7855C46.2325 32.8092 46.2813 32.821 46.3372 32.821C46.3746 32.821 46.4084 32.8158 46.4387 32.8054C46.469 32.7945 46.4953 32.7786 46.5176 32.7578C46.5398 32.737 46.5566 32.7112 46.568 32.6804L46.808 32.7074C46.7929 32.7708 46.764 32.8262 46.7214 32.8736C46.6793 32.9205 46.6253 32.9569 46.5595 32.983C46.4936 33.0085 46.4184 33.0213 46.3336 33.0213ZM47.4362 33V31.9091H47.6855V32.0909H47.6969C47.7167 32.0279 47.7508 31.9794 47.7991 31.9453C47.8479 31.9107 47.9035 31.8935 47.966 31.8935C47.9802 31.8935 47.9961 31.8942 48.0136 31.8956C48.0316 31.8965 48.0465 31.8982 48.0584 31.9006V32.1371C48.0475 32.1333 48.0302 32.13 48.0065 32.1271C47.9833 32.1238 47.9608 32.1222 47.939 32.1222C47.8922 32.1222 47.85 32.1323 47.8126 32.1527C47.7757 32.1726 47.7466 32.2003 47.7253 32.2358C47.704 32.2713 47.6933 32.3123 47.6933 32.3587V33H47.4362Z" fill="#2B2A2A"/>
</svg>
